# Blender v2.75 (sub 0) OBJ File: ''
# www.blender.org
mtllib flipper.mtl
o Cube
v 4.085104 0.139267 -2.017362
v 4.085104 0.139267 2.017362
v -4.085105 0.139267 2.017361
v -4.085103 0.139267 -2.017363
v 4.085106 -0.139267 -2.017361
v 4.085102 -0.139267 2.017363
v -4.085106 -0.139267 2.017361
v -4.085104 -0.139267 -2.017362
vn 0.000000 -1.000000 -0.000000
vn 0.000000 1.000000 0.000000
vn -1.000000 0.000000 -0.000000
vn 0.000000 -0.000000 -1.000000
vn 1.000000 -0.000000 0.000000
vn -0.000000 0.000000 1.000000
usemtl Material
s off
f 1//1 2//1 3//1 4//1
f 5//2 8//2 7//2 6//2
f 1//3 5//3 6//3 2//3
f 2//4 6//4 7//4 3//4
f 3//5 7//5 8//5 4//5
f 5//6 1//6 4//6 8//6
